<?xml version="1.0" encoding="UTF-8"?>
<svg id="Calque_7" data-name="Calque 7" xmlns="http://www.w3.org/2000/svg" viewBox="0 0 24 24">
  <defs>
    <style>
      .cls-1 {
        stroke-width: 0px;
        fill: #f4f4f4;
      }
    </style>
  </defs>
  <path class="cls-1" d="m11.99914,2C6.47912,2,1.99914,6.47998,1.99914,12s4.47998,10,10,10,10-4.48004,10-10S17.51916,2,11.99914,2Zm0,19c-4.96997,0-9-4.03003-9-9S7.02917,3,11.99914,3s9,4.02997,9,9-4.02997,9-9,9Z"/>
  <path class="cls-1" d="m11.99914,4c-4.41998,0-8,3.57996-8,8s3.58002,8,8,8,8-3.58002,8-8-3.58002-8-8-8Zm-1.85999,8.76996h-1.63v1.62006h-1.28003v-1.62006h-1.62994v-1.25h1.62994v-1.62h1.28003v1.62h1.63v1.25Zm2.70001,2.38h-1.37v-4.94l-1.10004.27002-.28998-1.14001,1.81-.53998h.95001v6.34998Zm3.13.09003c-1.40002,0-2.43005-.72003-2.43005-1.83002,0-.76996.35004-1.21997,1.01001-1.52997-.47998-.29004-.79999-.70001-.79999-1.38,0-.98004.88-1.73999,2.22003-1.73999,1.32996,0,2.20996.75995,2.20996,1.73999,0,.67999-.31,1.08997-.79999,1.38.64001.33997,1.02002.73999,1.02002,1.5,0,1.17999-1.04004,1.85999-2.42999,1.85999Z"/>
  <path class="cls-1" d="m17.05914,13.31c0,.45001-.40997.78998-1.08997.78998-.69,0-1.09003-.33997-1.09003-.78998,0-.5.46002-.79004,1.09003-.79004s1.08997.29004,1.08997.79004Z"/>
  <path class="cls-1" d="m16.86914,10.64996c0,.45001-.34998.77002-.89996.77002-.55005,0-.90002-.33002-.90002-.77997,0-.40002.33002-.74005.90002-.74005.56,0,.89996.35004.89996.75Z"/>
</svg>