<?xml version="1.0" encoding="UTF-8"?>
<svg id="Calque_5" data-name="Calque 5" xmlns="http://www.w3.org/2000/svg" viewBox="0 0 24 24">
  <defs>
    <style>
      .cls-1 {
        stroke-width: 0px;
        fill: #b83a8d;
      }
    </style>
  </defs>
  <path class="cls-1" d="m11.99742,3.62C7.37743,3.62,3.62743,7.38,3.62743,12s3.75,8.38,8.37,8.38,8.38-3.76001,8.38-8.38S16.61742,3.62,11.99742,3.62Zm.38,2.59998l2.17004-1.39001c1.29999.45001,2.42999,1.25,3.28998,2.28003v.01001l-.45001,2.77997-2.25.71002-2.76001-2v-2.39001Zm-3.01996-1.35999l2.26996,1.28998v2.45001l-2.84998,2.07001-2.33002-.66998-.70001-2.34003c.88-1.26996,2.13-2.26001,3.61005-2.79999Zm-3.80005,11.19c-.66998-1.04999-1.07996-2.27002-1.15997-3.58002l1.82001-1.76001,2.46997.72003.97003,2.98999-1.45001,1.87-2.65002-.23999Zm8.21002,3.35999c-.57001.14001-1.15997.21002-1.77002.21002-.71997,0-1.40997-.10004-2.07001-.29004l-1.08997-2.63995,1.33997-1.72003h3.40002l1.32001,1.92999-1.13,2.51001Zm4.40997-2.95996l-2.56995.14996-1.34003-1.95996,1.07001-3.30005,2.33002-.73999,1.95996,1.45001c-.01001,1.64001-.53998,3.15997-1.45001,4.40002Z"/>
</svg>