<?xml version="1.0" encoding="UTF-8"?>
<svg id="Calque_6" data-name="Calque 6" xmlns="http://www.w3.org/2000/svg" viewBox="0 0 24 24">
  <defs>
    <style>
      .cls-1 {
        stroke-width: 0px;
        fill: #f4f4f4;
      }
    </style>
  </defs>
  <path class="cls-1" d="m16.9336,16.82001c-.57001.64996-1.92999.77997-1.92999.77997,0-.02002-.70996-.62-1.06-.92999-.10999-.09003-.19-.15002-.19-.15002-.15997.10004-.29999.22003-.40997.35004-.75.85999-.42999,2.15997-.42999,2.15997-2.39001,1.87-5.98004,2.38-5.98004,2.38.97003-2.02997,1.27002-5.51996,1.27002-5.51996l.59998.03998.76001.06c.89001-.94,1.07001-2.44,1.07001-2.44-.75.37-2.62.96997-2.95996,1.08002-.04004.01001-.06006.01996-.06006.01996l-.35999,1.35004c-.26996.20996-1.19.39996-1.19.39996,1.13-3.58997.60004-5.92999.60004-5.92999l.44995.21002c.58002-2.16003,2.55005-3.73999,4.89001-3.73999,2.79004,0,5.06,2.26001,5.06,5.06,0,.60999-.10999,1.20001-.32001,1.73999.01001.01001,0,.02002,0,.02997-.47998,1.62006.19,3.05005.19,3.05005Z"/>
  <path class="cls-1" d="m18.36359,11.06l-.82996-.19c-.51001-2.60004-2.79004-4.54999-5.53003-4.54999-1.84998,0-3.48999.88995-4.51001,2.25995l-.06995-.00995-.64001-.37c1.15997-1.62006,3.06-2.68005,5.21997-2.68005,3.23999,0,5.92999,2.41003,6.35999,5.54004Z"/>
  <path class="cls-1" d="m22.0036,11.88l-2.94-.67004c-.37-3.57996-3.38995-6.35999-7.06-6.35999-2.40997,0-4.52997,1.19-5.79999,3.02002l-2.52002-1.45001C5.46362,3.72998,8.52362,1.95996,12.0036,1.95996c5.48999,0,9.96002,4.43005,10,9.92004Z"/>
</svg>