<?xml version="1.0" encoding="UTF-8"?>
<svg id="jeux_vidéo" data-name="jeux vidéo" xmlns="http://www.w3.org/2000/svg" viewBox="0 0 24 24">
  <defs>
    <style>
      .cls-1 {
        stroke-width: 0px;
        fill: #f4f4f4;
      }
    </style>
  </defs>
  <path class="cls-1" d="m12.97859,12.94c2.58127,0,2.42999,1.5,3.09998,2.79999.95001,1.81,2.20748,1.80279,3.21749,1.46277,1.32996-.44,1.71251-2.09277.83256-5.02276-.78003-2.58002-2.25-4.72003-3.5-4.85004-.04004,0-.09003-.00995-.14001-.00995H7.50856c-.18994,0-.37.03998-.52997.10999-1.15002.42999-2.40997,2.45001-3.09998,4.75-.88,2.94-.52256,4.58276.8174,5.03277,1.01001.34003,2.30259.34723,3.23259-1.47278.62-1.20001,1.12211-2.82209,3.14253-2.82209m-1.23255-2.1679c0,.14001-.10999.26001-.25.26001h-1.06v1.04999c0,.14001-.10999.26001-.26001.26001h-.54999c-.14001,0-.25-.12-.25-.26001v-1.04999h-1.06c-.14001,0-.26001-.12-.26001-.26001v-.54999c0-.14001.12-.26001.26001-.26001h1.06v-1.06c0-.14001.10999-.25.25-.25h.54999c.15002,0,.26001.10999.26001.25v1.06h1.06c.14001,0,.25.12.25.26001v.54999Zm6.16003-2.02002c.33997,0,.62.28003.62.62,0,.34003-.28003.60999-.62.60999-.34003,0-.61005-.26996-.61005-.60999,0-.33997.27002-.62.61005-.62Zm-1.61005,1.60999c0-.33997.27002-.62.61005-.62.33997,0,.62.28003.62.62,0,.34003-.28003.61005-.62.61005-.34003,0-.61005-.27002-.61005-.61005Zm1.60004,1.61005c-.34003,0-.60999-.28003-.60999-.62006,0-.33997.26996-.60999.60999-.60999.33997,0,.62.27002.62.60999,0,.34003-.28003.62006-.62.62006Zm1-.99005c-.34003,0-.60999-.27997-.60999-.62,0-.33997.26996-.60999.60999-.60999.33997,0,.62.27002.62.60999,0,.34003-.28003.62-.62.62Z"/>
</svg>