<?xml version="1.0" encoding="UTF-8"?>
<svg id="Calque_8" data-name="Calque 8" xmlns="http://www.w3.org/2000/svg" viewBox="0 0 24 24">
  <defs>
    <style>
      .cls-1 {
        stroke-width: 0px;
        fill: #f4f4f4;
      }
    </style>
  </defs>
  <path class="cls-1" d="m12.62194,9.29999c0,.04999-.01001.09998-.02002.15002-.07001.26996-.31.46997-.60004.46997-.28998,0-.52997-.20001-.59998-.46997-.01001-.05005-.02002-.10004-.02002-.15002,0-.34003.28003-.62.62-.62.34003,0,.62006.27997.62006.62Z"/>
  <path class="cls-1" d="m20.42193,17.02997c-.06-.71997-.41003-1.33997-1-1.63995-.82001-.42004-1.85004-.11005-2.58002.68994l-.70001-.53998c.06-.22998.10004-.46997.13-.71997v-.01001c1.81-.41998,2.62-.91003,2.91003-1.14001.02997-.01001.04999-.02997.06995-.04999.02002-.02002.04004-.03003.06006-.04999l.00995-.01001v-.01001c.38-.31.63-.78998.63-1.33002,0-.95996-.78998-1.75-1.75-1.75-.13995,0-.27997.02002-.40997.06-.03003,0-.04999.01001-.08002.02002l-.19.06-1.83997.57001-.28003.08997c.66998-.78998,1.07001-1.81,1.07001-2.91998,0-.16998-.01001-.33002-.02002-.48999.04004-.01001.08002-.02002.11005-.03998.93994-.33002,1.60999-1.23004,1.60999-2.29004,0-1.34998-1.09003-2.44-2.44-2.44-.83002,0-1.56.41003-2,1.04004-.02002.01996-.03003.02997-.04004.04999-.53998-.22003-1.12994-.35004-1.75-.35004-.58997,0-1.14996.11005-1.65997.32001-.01001-.00995-.02002-.02997-.03003-.03998-.43994-.62-1.16998-1.02002-1.98999-1.02002-1.33997,0-2.44,1.09003-2.44,2.44,0,1.03003.65002,1.92004,1.56,2.27002.02002.01001.05005.02002.07001.02997-.01996.17004-.02997.34003-.02997.52002,0,1.15002.42999,2.19,1.13,2.98999l-.22003-.07001-1.89996-.57996-.28003-.09003c-.13-.02997-.26001-.04999-.40002-.04999-.96997,0-1.75.77997-1.75,1.75,0,.52997.24005,1.01001.62006,1.33002v.01001s.64996.69995,3.12,1.25995c.01996.20001.04999.40002.09998.59003l-.73999.57001c-.72998-.79004-1.76001-1.10999-2.58002-.69-.58997.29999-.94.91998-1,1.64001-.06.53998.06,1.14996.35004,1.71997.54999,1.08002,1.56995,1.70001,2.47998,1.62.21997-.02002.42999-.08002.63-.17999l3.06-1.65002c.58997.34003,1.26001.53003,1.95996.53003.69,0,1.33002-.17999,1.90002-.51001h.01001l3.04999,1.65002c.20001.09998.41003.15997.63.17999.90997.08002,1.92999-.54004,2.47998-1.62.29004-.57001.41003-1.17999.35004-1.72003Zm-13.46002,2.37c-.08002.08002-.17999.15002-.27997.20001-.79004.40002-1.85004-.08997-2.36005-1.09998-.38-.73004-.35999-1.54004-.00995-2.08002.69995-.15002,1.57996.28998,2.15997,1.12.41998.60999.59003,1.29999.48999,1.85999Zm.73999-12.79999c-.38995-.20001-.64996-.59998-.64996-1.07001,0-.66998.53998-1.20996,1.20996-1.20996.36005,0,.69.15997.90002.40997-.63.48999-1.14001,1.13-1.46002,1.87Zm3.21002,7.17999c.03998.16003.12.31.21997.42999l-1.15997.5c-.22998,0-.41998-.19-.41998-.41998v-1.51001c0-.13.06-.25.15997-.32001.04999-.03998.10999-.06995.16998-.07996.03003-.02002.06-.02002.09003-.02002l1.15997.37c-.02997.02002-.04999.04999-.06.07001-.02997.04999-.06.09998-.07996.15002-.04004.06995-.07001.14996-.09003.22998h-.71997v.59998h.72998Zm1.69,0c-.04999.09003-.12.16003-.20001.22003-.09998.07001-.22998.12-.37.12-.15002,0-.28998-.04999-.39001-.13-.07996-.06-.14001-.13-.17999-.21002-.04999-.08997-.08002-.20001-.08002-.31,0-.09998.02002-.20001.07001-.28998.03003-.06.06-.10999.10004-.15002.04999-.04999.09998-.08997.15997-.12.02002-.01996.03998-.02997.06-.03998h.01001c.07001-.03003.15997-.04999.25-.04999s.16998.01996.23999.04999h.01001c.02002.01001.03003.01001.04999.02997.06.03003.12.07001.16003.12.04999.04004.08997.10004.12.16003.04999.08997.07001.19.07001.28998,0,.10999-.03003.22003-.08002.31Zm1.83997.51001c0,.22998-.17999.41998-.40997.41998l-1.12-.48999c.12-.12.20001-.26996.23999-.44h.67999v-.59998h-.66998c-.02002-.09003-.06-.17999-.09998-.26001-.03003-.06-.06006-.10999-.10004-.15997-.01001-.02002-.02997-.03003-.04999-.05005l1.12-.34998c.09003,0,.15997.03003.22998.08002.11005.07001.17999.20001.17999.33997v1.51001Zm.27002-6.53998c-.13.33997-.45001.57996-.83002.59998.35004.41998.56.97003.56,1.57001,0,.10999-.00995.22003-.01996.32001-.14001,1.08997-1.01001,1.96002-2.10004,2.09998-.09998.01001-.20996.02002-.32001.02002-.09998,0-.16998-.01001-.26996-.02002h-.02002c-1.10999-.13-1.98999-1-2.14001-2.09998-.00995-.09998-.01996-.21002-.01996-.32001,0-.59998.21997-1.15002.57001-1.57001-.39001-.01001-.72003-.26001-.85004-.59998-.03998-.10999-.06-.22003-.06-.34003,0-.51001.41998-.92999.94-.92999.12,0,.22998.02002.33002.06.34998.14001.59998.47998.59998.87,0,.09003-.01001.16998-.03998.25.29999-.12.62-.19.95996-.19.33002,0,.65002.07001.94.17999-.02997-.07996-.03998-.15997-.03998-.23999,0-.39996.26001-.73999.60999-.87.10004-.03998.21002-.06.32001-.06.52002,0,.94.41998.94.92999,0,.12-.02002.23004-.06.34003Zm.10004-2.98999c.20996-.27002.53998-.44.91998-.44.66998,0,1.20996.53998,1.20996,1.20996,0,.48004-.27997.90002-.69995,1.09003-.31-.73999-.81-1.38-1.42999-1.85999Zm4.81,13.75995c-.51001,1.01001-1.57001,1.5-2.36005,1.10004-.09998-.04999-.19-.10999-.26996-.20001h-.01001c-.10004-.56.07001-1.25.48999-1.85999.58002-.84003,1.46002-1.28003,2.15997-1.13.35004.53998.37,1.34998-.00995,2.08997Z"/>
  <path class="cls-1" d="m14.30193,7.40997c0,.03003,0,.06-.02002.09003-.03003.21997-.21997.38-.45001.38-.25,0-.45996-.21002-.45996-.47003,0-.21997.16998-.40997.37994-.44.02002-.01996.05005-.01996.08002-.01996.26001,0,.47003.20996.47003.45996Z"/>
  <path class="cls-1" d="m10.61193,7.40997c0,.26001-.21002.47003-.46002.47003-.22998,0-.40997-.16003-.45001-.37-.01996-.03003-.01996-.07001-.01996-.10004,0-.25.20996-.45996.46997-.45996.03003,0,.06,0,.09003.01996.20996.03003.37.22003.37.44Z"/>
  <path class="cls-1" d="m10.61193,7.40997c0,.26001-.21002.47003-.46002.47003-.22998,0-.40997-.16003-.45001-.37-.01996-.03003-.01996-.07001-.01996-.10004,0-.25.20996-.45996.46997-.45996.03003,0,.06,0,.09003.01996.20996.03003.37.22003.37.44Z"/>
  <path class="cls-1" d="m12.62194,9.29999c0,.04999-.01001.09998-.02002.15002-.07001.26996-.31.46997-.60004.46997-.28998,0-.52997-.20001-.59998-.46997-.01001-.05005-.02002-.10004-.02002-.15002,0-.34003.28003-.62.62-.62.34003,0,.62006.27997.62006.62Z"/>
  <path class="cls-1" d="m14.30193,7.40997c0,.03003,0,.06-.02002.09003-.03003.21997-.21997.38-.45001.38-.25,0-.45996-.21002-.45996-.47003,0-.21997.16998-.40997.37994-.44.02002-.01996.05005-.01996.08002-.01996.26001,0,.47003.20996.47003.45996Z"/>
</svg>