<?xml version="1.0" encoding="UTF-8"?>
<svg id="pop_corn" data-name="pop corn" xmlns="http://www.w3.org/2000/svg" viewBox="0 0 24 24">
  <defs>
    <style>
      .cls-1 {
        stroke-width: 0px;
        fill: #f4f4f4;
      }
    </style>
  </defs>
  <path class="cls-1" d="m9.6592,18.57447h-2.47576l-.87385-7.47295-.21285-1.76535c.28007-.95307,1.18749-1.63539,2.25176-1.63539.2465,0,.48171.03252.70578.0975l.04479.704.1905,3.56315v.02168l.36964,6.48735Z"/>
  <path class="cls-1" d="m17.89324,9.30372l-.21285,1.81949-.86263,7.45126h-2.49819l.3585-6.40075.01121-.11912.20164-3.64981.03357-.59565c.23528-.07582.47056-.10834.7282-.10834,1.05306,0,1.94926.67154,2.24054,1.60293Z"/>
  <path class="cls-1" d="m14.3527,7.73331l-.02275.37903-.15909,3.61736-.04542.99637-.26131,5.8484h-3.73827l-.27269-5.8917-.03405-.94223-.17046-3.63897-.01137-.30328c.61361-.58481,1.45442-.93139,2.38614-.93139.90898,0,1.71573.33574,2.32928.86641Z"/>
  <path class="cls-1" d="m6.24468,8.30319s-.46277-1.8883,1.18085-1.98404c0,0,.15426-1.24468,1.38298-1.02128,0,0,.87234-1.44681,2-.2766,0,0,1.3617-1.29787,2.31915-.08511,0,0,1.26596-1.01064,2.31915.87234,0,0,2.2234-.4734,2.07979,1.60106,0,0,.30319.15957.07979.47872,0,0-1.29255-1.11702-2.8883-.6383,0,0-2.55319-1.88298-5.4734,0,0,0-1.99468-.41489-3,1.05319Z"/>
</svg>